<svg xmlns="http://www.w3.org/2000/svg" xmlns:xlink="http://www.w3.org/1999/xlink" width="500" zoomAndPan="magnify" viewBox="0 0 375 374.999991" height="500" preserveAspectRatio="xMidYMid meet" version="1.0"><defs><g/><clipPath id="3916685891"><path d="M 11 4.542969 L 364 4.542969 L 364 262 L 11 262 Z M 11 4.542969 " clip-rule="nonzero"/></clipPath><clipPath id="936e8861a5"><path d="M 179 196 L 356 196 L 356 370.542969 L 179 370.542969 Z M 179 196 " clip-rule="nonzero"/></clipPath></defs><g clip-path="url(#3916685891)"><path fill="#725767" d="M 19.828125 136.175781 C 19.785156 136.417969 19.730469 136.660156 19.644531 136.902344 C 19.730469 136.660156 19.785156 136.417969 19.828125 136.175781 Z M 19.871094 135.875 C 19.871094 136.316406 19.929688 137.832031 20.457031 139.875 C 21.558594 144 24.382812 147.726562 28.253906 150.082031 L 179.667969 242.324219 C 179.425781 240.824219 179.308594 239.296875 179.308594 237.726562 C 179.308594 222.878906 185.734375 212.625 200.800781 203.429688 L 344.945312 115.585938 C 346.84375 114.429688 347.046875 112.5 347.046875 111.730469 C 347.046875 110.957031 346.84375 109.046875 344.945312 107.875 L 191.847656 14.5625 L 37.136719 108.859375 C 24.570312 116.511719 19.902344 123.710938 19.902344 135.390625 C 19.902344 135.546875 19.886719 135.71875 19.871094 135.875 Z M 199.128906 261.714844 C 195.960938 261.714844 192.890625 260.859375 190.0625 259.132812 C 189.492188 258.773438 188.933594 258.402344 188.40625 257.988281 L 24 157.835938 C 18.144531 154.28125 13.988281 148.742188 12.277344 142.273438 C 11.433594 139.046875 11.261719 136.847656 11.40625 135.347656 C 11.417969 120.511719 17.84375 110.273438 32.894531 101.09375 L 189.71875 5.507812 C 191.035156 4.710938 192.648438 4.710938 193.960938 5.507812 L 349.1875 100.121094 C 353.171875 102.546875 355.539062 106.890625 355.539062 111.730469 C 355.539062 116.570312 353.171875 120.925781 349.1875 123.339844 L 205.054688 211.195312 C 192.476562 218.863281 187.804688 226.046875 187.804688 237.726562 C 187.804688 243.023438 189.875 247.90625 193.191406 250.578125 C 193.261719 250.636719 193.347656 250.691406 193.417969 250.765625 C 193.703125 250.976562 194.003906 251.179688 194.304688 251.363281 C 197.671875 253.417969 201.671875 253.164062 205.855469 250.605469 L 351.644531 161.75 L 339.804688 153.609375 C 337.847656 152.269531 337.292969 149.484375 338.5625 147.414062 C 339.847656 145.34375 342.476562 144.757812 344.445312 146.113281 L 362.066406 158.238281 C 363.308594 159.078125 364.035156 160.550781 363.992188 162.105469 C 363.953125 163.664062 363.152344 165.089844 361.867188 165.863281 L 210.109375 258.375 C 206.453125 260.601562 202.726562 261.714844 199.128906 261.714844 " fill-opacity="1" fill-rule="nonzero"/></g><path fill="#725767" d="M 270.082031 318.160156 C 268.609375 318.160156 267.183594 317.359375 266.398438 315.917969 C 265.226562 313.777344 265.925781 311.035156 267.953125 309.792969 L 351.644531 258.789062 L 339.804688 250.648438 C 337.847656 249.292969 337.292969 246.523438 338.5625 244.4375 C 339.847656 242.367188 342.476562 241.78125 344.445312 243.140625 L 362.066406 255.261719 C 363.308594 256.117188 364.035156 257.589844 363.992188 259.144531 C 363.953125 260.703125 363.152344 262.117188 361.867188 262.902344 L 272.195312 317.5625 C 271.523438 317.976562 270.796875 318.160156 270.082031 318.160156 " fill-opacity="1" fill-rule="nonzero"/><path fill="#725767" d="M 19.828125 233.214844 C 19.785156 233.457031 19.730469 233.699219 19.644531 233.929688 C 19.730469 233.699219 19.785156 233.457031 19.828125 233.214844 Z M 190.761719 355.769531 C 190.035156 355.769531 189.304688 355.570312 188.632812 355.171875 L 24 254.875 C 18.144531 251.304688 13.988281 245.78125 12.277344 239.296875 C 11.433594 236.070312 11.261719 233.886719 11.40625 232.386719 C 11.417969 217.578125 17.816406 207.339844 32.792969 198.1875 L 39.933594 193.292969 C 41.902344 191.949219 44.53125 192.535156 45.816406 194.605469 C 47.085938 196.691406 46.53125 199.460938 44.558594 200.816406 L 37.335938 205.769531 C 37.261719 205.8125 37.207031 205.84375 37.136719 205.886719 C 24.570312 213.554688 19.902344 220.75 19.902344 232.414062 C 19.902344 232.585938 19.886719 232.742188 19.871094 232.914062 C 19.871094 233.34375 19.929688 234.871094 20.457031 236.898438 C 21.558594 241.039062 24.382812 244.765625 28.253906 247.109375 L 192.890625 347.402344 C 194.917969 348.644531 195.617188 351.386719 194.433594 353.53125 C 193.660156 354.972656 192.21875 355.769531 190.761719 355.769531 " fill-opacity="1" fill-rule="nonzero"/><g clip-path="url(#936e8861a5)"><path fill="#725767" d="M 241.082031 370.449219 C 240.367188 370.449219 239.640625 370.25 238.996094 369.863281 C 237.667969 369.078125 236.839844 367.578125 236.839844 365.964844 L 236.839844 339.308594 L 210.082031 355.414062 C 203.242188 359.582031 196.117188 359.855469 190.0625 356.15625 C 183.4375 352.117188 179.308594 343.917969 179.308594 334.765625 C 179.308594 319.902344 185.734375 309.648438 200.800781 300.46875 L 344.945312 212.609375 C 346.84375 211.453125 347.046875 209.539062 347.046875 208.769531 C 347.046875 207.984375 346.84375 206.070312 344.945312 204.914062 C 342.917969 203.671875 342.21875 200.929688 343.390625 198.789062 C 344.558594 196.648438 347.160156 195.917969 349.1875 197.148438 C 353.171875 199.574219 355.539062 203.914062 355.539062 208.769531 C 355.539062 213.609375 353.171875 217.949219 349.1875 220.378906 L 205.054688 308.238281 C 192.476562 315.890625 187.804688 323.085938 187.804688 334.765625 C 187.804688 340.636719 190.347656 345.988281 194.304688 348.402344 C 197.671875 350.460938 201.671875 350.203125 205.855469 347.644531 L 238.980469 327.714844 C 240.296875 326.914062 241.910156 326.929688 243.222656 327.726562 C 244.523438 328.527344 245.335938 330.011719 245.335938 331.597656 L 245.335938 358.070312 L 265.828125 345.105469 L 265.828125 313.675781 C 265.828125 307.464844 262.640625 301.683594 257.53125 298.597656 C 255.488281 297.371094 254.789062 294.628906 255.945312 292.488281 C 257.101562 290.332031 259.699219 289.589844 261.726562 290.816406 C 269.496094 295.484375 274.324219 304.253906 274.324219 313.675781 L 274.324219 347.644531 C 274.324219 349.230469 273.535156 350.6875 272.253906 351.488281 L 243.265625 369.808594 C 242.59375 370.234375 241.835938 370.449219 241.082031 370.449219 " fill-opacity="1" fill-rule="nonzero"/></g><path fill="#725767" d="M 165.332031 185.78125 C 164.632812 185.78125 163.933594 185.59375 163.273438 185.210938 L 32.964844 108.886719 C 30.910156 107.6875 30.167969 104.960938 31.308594 102.804688 C 32.4375 100.636719 35.023438 99.851562 37.078125 101.050781 L 167.386719 177.371094 C 169.445312 178.570312 170.1875 181.296875 169.042969 183.46875 C 168.273438 184.9375 166.816406 185.78125 165.332031 185.78125 " fill-opacity="1" fill-rule="nonzero"/><path fill="#cd908b" d="M 110.757812 79.503906 L 272.921875 79.503906 L 191.847656 30.082031 Z M 110.757812 79.503906 " fill-opacity="1" fill-rule="nonzero"/><g fill="#000000" fill-opacity="1"><g transform="translate(30.486058, 352.806431)"><g><path d="M 0.3125 0.015625 C 0.257812 0.015625 0.210938 0.00390625 0.171875 -0.015625 C 0.140625 -0.046875 0.113281 -0.0820312 0.09375 -0.125 C 0.0703125 -0.164062 0.0625 -0.210938 0.0625 -0.265625 C 0.0625 -0.328125 0.0703125 -0.378906 0.09375 -0.421875 C 0.113281 -0.460938 0.140625 -0.492188 0.171875 -0.515625 C 0.210938 -0.535156 0.257812 -0.546875 0.3125 -0.546875 C 0.363281 -0.546875 0.40625 -0.535156 0.4375 -0.515625 C 0.476562 -0.492188 0.503906 -0.46875 0.515625 -0.4375 L 0.46875 -0.390625 L 0.453125 -0.390625 C 0.441406 -0.421875 0.421875 -0.441406 0.390625 -0.453125 C 0.367188 -0.472656 0.34375 -0.484375 0.3125 -0.484375 C 0.28125 -0.484375 0.25 -0.472656 0.21875 -0.453125 C 0.195312 -0.441406 0.175781 -0.421875 0.15625 -0.390625 C 0.144531 -0.359375 0.140625 -0.316406 0.140625 -0.265625 C 0.140625 -0.222656 0.144531 -0.1875 0.15625 -0.15625 C 0.175781 -0.125 0.195312 -0.0976562 0.21875 -0.078125 C 0.25 -0.0664062 0.28125 -0.0625 0.3125 -0.0625 C 0.34375 -0.0625 0.367188 -0.0664062 0.390625 -0.078125 C 0.421875 -0.0976562 0.441406 -0.128906 0.453125 -0.171875 L 0.46875 -0.171875 L 0.515625 -0.140625 C 0.503906 -0.0859375 0.476562 -0.046875 0.4375 -0.015625 C 0.40625 0.00390625 0.363281 0.015625 0.3125 0.015625 Z M 0.3125 0.015625 "/></g></g></g></svg>